{
	"asset":{
		"version":"2.0",
		"generator":""
	},
	"scenes":[{
		"nodes":[0]
	}],
	"images":[{
		"uri":"data:image/png;base64,"
	}],
	"nodes":[{
		"name":"R4880",
		"children":[1,
		2]
	},
	{
		"translation":[0.0,
		0.0,
		0.014572440646588803],
		"name":"Pearls",
		"rotation":[0.0,
		0.0,
		0.0,
		-1.0],
		"scale":[1.0,
		1.0,
		1.0],
		"children":[3]
	},
	{
		"name":"Ring",
		"children":[4,
		5,
		6,
		7,
		8]
	},
	{
		"name":"Cloner_Pearls",
		"children":[9,
		10,
		11,
		12,
		13,
		14,
		15,
		16,
		17]
	},
	{
		"name":"Cube.1",
		"mesh":0
	},
	{
		"name":"Cube.2",
		"mesh":1
	},
	{
		"name":"Cube.3",
		"mesh":2
	},
	{
		"name":"Cube.4",
		"mesh":3
	},
	{
		"translation":[0.0,
		0.0,
		0.00012625163071788847],
		"name":"Bool_Ring",
		"rotation":[0.0,
		0.0,
		0.0,
		-1.0],
		"scale":[1.0,
		1.0,
		1.0],
		"children":[18,
		19]
	},
	{
		"translation":[-0.0064500002190470699,
		-0.006579999811947346,
		0.0],
		"name":"SDS_Pearls 0",
		"rotation":[0.0,
		0.0,
		0.0,
		-1.0],
		"scale":[1.0,
		1.0,
		1.0],
		"children":[20]
	},
	{
		"translation":[0.0,
		-0.006579999811947346,
		0.0],
		"name":"SDS_Pearls 1",
		"rotation":[0.0,
		0.0,
		0.0,
		-1.0],
		"scale":[1.0,
		1.0,
		1.0],
		"children":[21]
	},
	{
		"translation":[0.0064500002190470699,
		-0.006579999811947346,
		0.0],
		"name":"SDS_Pearls 2",
		"rotation":[0.0,
		0.0,
		0.0,
		-1.0],
		"scale":[1.0,
		1.0,
		1.0],
		"children":[22]
	},
	{
		"translation":[-0.0064500002190470699,
		0.0,
		0.0],
		"name":"SDS_Pearls 3",
		"rotation":[0.0,
		0.0,
		0.0,
		-1.0],
		"scale":[1.0,
		1.0,
		1.0],
		"children":[23]
	},
	{
		"name":"SDS_Pearls 4",
		"children":[24]
	},
	{
		"translation":[0.0064500002190470699,
		0.0,
		0.0],
		"name":"SDS_Pearls 5",
		"rotation":[0.0,
		0.0,
		0.0,
		-1.0],
		"scale":[1.0,
		1.0,
		1.0],
		"children":[25]
	},
	{
		"translation":[-0.0064500002190470699,
		0.006579999811947346,
		0.0],
		"name":"SDS_Pearls 6",
		"rotation":[0.0,
		0.0,
		0.0,
		-1.0],
		"scale":[1.0,
		1.0,
		1.0],
		"children":[26]
	},
	{
		"translation":[0.0,
		0.006579999811947346,
		0.0],
		"name":"SDS_Pearls 7",
		"rotation":[0.0,
		0.0,
		0.0,
		-1.0],
		"scale":[1.0,
		1.0,
		1.0],
		"children":[27]
	},
	{
		"translation":[0.0064500002190470699,
		0.006579999811947346,
		0.0],
		"name":"SDS_Pearls 8",
		"rotation":[0.0,
		0.0,
		0.0,
		-1.0],
		"scale":[1.0,
		1.0,
		1.0],
		"children":[28]
	},
	{
		"name":"SDS_Ring",
		"children":[29]
	},
	{
		"translation":[0.0,
		0.0,
		0.01025374885648489],
		"name":"Bool",
		"mesh":4,
		"rotation":[0.0,
		0.0,
		0.0,
		-1.0],
		"scale":[1.0,
		1.0,
		1.0]
	},
	{
		"translation":[0.0,
		0.0,
		0.0],
		"name":"Mesh_Pearl",
		"mesh":5,
		"rotation":[0.0,
		0.0,
		7.450580596923828e-9,
		-1.0],
		"scale":[1.440000057220459,
		1.440000057220459,
		1.440000057220459]
	},
	{
		"translation":[0.0,
		0.0,
		0.0],
		"name":"Mesh_Pearl",
		"mesh":5,
		"rotation":[0.0,
		0.0,
		7.450580596923828e-9,
		-1.0],
		"scale":[1.440000057220459,
		1.440000057220459,
		1.440000057220459]
	},
	{
		"translation":[0.0,
		0.0,
		0.0],
		"name":"Mesh_Pearl",
		"mesh":5,
		"rotation":[0.0,
		0.0,
		7.450580596923828e-9,
		-1.0],
		"scale":[1.440000057220459,
		1.440000057220459,
		1.440000057220459]
	},
	{
		"translation":[0.0,
		0.0,
		0.0],
		"name":"Mesh_Pearl",
		"mesh":5,
		"rotation":[0.0,
		0.0,
		7.450580596923828e-9,
		-1.0],
		"scale":[1.440000057220459,
		1.440000057220459,
		1.440000057220459]
	},
	{
		"translation":[0.0,
		0.0,
		0.0],
		"name":"Mesh_Pearl",
		"mesh":5,
		"rotation":[0.0,
		0.0,
		7.450580596923828e-9,
		-1.0],
		"scale":[1.440000057220459,
		1.440000057220459,
		1.440000057220459]
	},
	{
		"translation":[0.0,
		0.0,
		0.0],
		"name":"Mesh_Pearl",
		"mesh":5,
		"rotation":[0.0,
		0.0,
		7.450580596923828e-9,
		-1.0],
		"scale":[1.440000057220459,
		1.440000057220459,
		1.440000057220459]
	},
	{
		"translation":[0.0,
		0.0,
		0.0],
		"name":"Mesh_Pearl",
		"mesh":5,
		"rotation":[0.0,
		0.0,
		7.450580596923828e-9,
		-1.0],
		"scale":[1.440000057220459,
		1.440000057220459,
		1.440000057220459]
	},
	{
		"translation":[0.0,
		0.0,
		0.0],
		"name":"Mesh_Pearl",
		"mesh":5,
		"rotation":[0.0,
		0.0,
		7.450580596923828e-9,
		-1.0],
		"scale":[1.440000057220459,
		1.440000057220459,
		1.440000057220459]
	},
	{
		"translation":[0.0,
		0.0,
		0.0],
		"name":"Mesh_Pearl",
		"mesh":5,
		"rotation":[0.0,
		0.0,
		7.450580596923828e-9,
		-1.0],
		"scale":[1.440000057220459,
		1.440000057220459,
		1.440000057220459]
	},
	{
		"name":"Mesh_Ring",
		"mesh":6
	}],
	"meshes":[{
		"name":"Cube.1",
		"primitives":[{
			"attributes":{
				"POSITION":1,
				"NORMAL":2,
				"TEXCOORD_0":3
			},
			"indices":0,
			"material":0
		}]
	},
	{
		"name":"Cube.2",
		"primitives":[{
			"attributes":{
				"POSITION":5,
				"NORMAL":6,
				"TEXCOORD_0":7
			},
			"indices":4,
			"material":0
		}]
	},
	{
		"name":"Cube.3",
		"primitives":[{
			"attributes":{
				"POSITION":9,
				"NORMAL":10,
				"TEXCOORD_0":11
			},
			"indices":8,
			"material":0
		}]
	},
	{
		"name":"Cube.4",
		"primitives":[{
			"attributes":{
				"POSITION":13,
				"NORMAL":14,
				"TEXCOORD_0":15
			},
			"indices":12,
			"material":0
		}]
	},
	{
		"name":"Bool",
		"primitives":[{
			"attributes":{
				"POSITION":17,
				"NORMAL":18,
				"TEXCOORD_0":19
			},
			"indices":16
		}]
	},
	{
		"name":"Mesh_Pearl",
		"primitives":[{
			"attributes":{
				"POSITION":21,
				"NORMAL":22,
				"TEXCOORD_0":23
			},
			"indices":20,
			"material":1
		}]
	},
	{
		"name":"Mesh_Ring",
		"primitives":[{
			"attributes":{
				"POSITION":25,
				"NORMAL":26,
				"TEXCOORD_0":27
			},
			"indices":24,
			"material":0
		}]
	}],
	"accessors":[{
		"bufferView":0,
		"min":[0],
		"type":"SCALAR",
		"componentType":5123,
		"count":720,
		"byteOffset":0,
		"max":[297]
	},
	{
		"bufferView":1,
		"min":[-0.0010499999625608326,
		-0.005540058016777039,
		0.009329999797046185],
		"type":"VEC3",
		"componentType":5126,
		"count":298,
		"byteOffset":0,
		"max":[0.0010499999625608326,
		0.005540056619793177,
		0.011180000379681588]
	},
	{
		"bufferView":1,
		"min":[-1.0,
		-1.0,
		-1.0],
		"type":"VEC3",
		"componentType":5126,
		"count":298,
		"byteOffset":12,
		"max":[1.0,
		1.0,
		1.0]
	},
	{
		"bufferView":1,
		"min":[-0.008974899537861348,
		-6.344397718294204e-8],
		"type":"VEC2",
		"componentType":5126,
		"count":298,
		"byteOffset":24,
		"max":[1.0090851783752442,
		1.0]
	},
	{
		"bufferView":2,
		"min":[0],
		"type":"SCALAR",
		"componentType":5123,
		"count":1638,
		"byteOffset":0,
		"max":[589]
	},
	{
		"bufferView":3,
		"min":[-0.007499999832361937,
		-0.0010499999625608326,
		0.009329697117209435],
		"type":"VEC3",
		"componentType":5126,
		"count":590,
		"byteOffset":0,
		"max":[0.007499999832361937,
		0.0010499999625608326,
		0.011429999954998494]
	},
	{
		"bufferView":3,
		"min":[-1.0,
		-1.0,
		-1.0],
		"type":"VEC3",
		"componentType":5126,
		"count":590,
		"byteOffset":12,
		"max":[1.0,
		1.0,
		1.0]
	},
	{
		"bufferView":3,
		"min":[-7.518157374864637e-14,
		-4.2026099397393659e-13],
		"type":"VEC2",
		"componentType":5126,
		"count":590,
		"byteOffset":24,
		"max":[1.0,
		1.0]
	},
	{
		"bufferView":4,
		"min":[0],
		"type":"SCALAR",
		"componentType":5123,
		"count":1296,
		"byteOffset":0,
		"max":[485]
	},
	{
		"bufferView":5,
		"min":[-0.007499999832361937,
		-0.007540000136941671,
		0.009329999797046185],
		"type":"VEC3",
		"componentType":5126,
		"count":486,
		"byteOffset":0,
		"max":[0.007499999832361937,
		-0.005439999978989363,
		0.011429999954998494]
	},
	{
		"bufferView":5,
		"min":[-1.0,
		-1.0,
		-1.0],
		"type":"VEC3",
		"componentType":5126,
		"count":486,
		"byteOffset":12,
		"max":[1.0,
		1.0,
		1.0]
	},
	{
		"bufferView":5,
		"min":[-4.411853911714947e-13,
		-6.280369833130267e-15],
		"type":"VEC2",
		"componentType":5126,
		"count":486,
		"byteOffset":24,
		"max":[1.0,
		1.0]
	},
	{
		"bufferView":6,
		"min":[0],
		"type":"SCALAR",
		"componentType":5123,
		"count":1296,
		"byteOffset":0,
		"max":[483]
	},
	{
		"bufferView":7,
		"min":[-0.007499999832361937,
		0.005439999978989363,
		0.009329999797046185],
		"type":"VEC3",
		"componentType":5126,
		"count":484,
		"byteOffset":0,
		"max":[0.007499999832361937,
		0.007540000136941671,
		0.011429999954998494]
	},
	{
		"bufferView":7,
		"min":[-1.0,
		-1.0,
		-1.0],
		"type":"VEC3",
		"componentType":5126,
		"count":484,
		"byteOffset":12,
		"max":[1.0,
		1.0,
		1.0]
	},
	{
		"bufferView":7,
		"min":[-4.437982709733397e-14,
		-4.339578826492718e-13],
		"type":"VEC2",
		"componentType":5126,
		"count":484,
		"byteOffset":24,
		"max":[1.0,
		1.0]
	},
	{
		"bufferView":8,
		"min":[0],
		"type":"SCALAR",
		"componentType":5123,
		"count":177,
		"byteOffset":0,
		"max":[70]
	},
	{
		"bufferView":9,
		"min":[-0.004713863134384155,
		-0.0010499999625608326,
		-0.0010500001953914762],
		"type":"VEC3",
		"componentType":5126,
		"count":71,
		"byteOffset":0,
		"max":[0.0047138649970293049,
		0.0010499999625608326,
		-0.00018483806343283504]
	},
	{
		"bufferView":9,
		"min":[0.0,
		-1.0,
		0.0],
		"type":"VEC3",
		"componentType":5126,
		"count":71,
		"byteOffset":12,
		"max":[0.0,
		1.0,
		1.0]
	},
	{
		"bufferView":9,
		"min":[3.694144368182606e-8,
		1.0574403981275764e-17],
		"type":"VEC2",
		"componentType":5126,
		"count":71,
		"byteOffset":24,
		"max":[0.9999999403953552,
		1.0]
	},
	{
		"bufferView":10,
		"min":[0],
		"type":"SCALAR",
		"componentType":5123,
		"count":10752,
		"byteOffset":0,
		"max":[1944]
	},
	{
		"bufferView":11,
		"min":[-0.0022403255570679905,
		-0.0022869505919516088,
		-0.0022403255570679905],
		"type":"VEC3",
		"componentType":5126,
		"count":1945,
		"byteOffset":0,
		"max":[0.0022403253242373468,
		0.0022869505919516088,
		0.0022403255570679905]
	},
	{
		"bufferView":11,
		"min":[-1.0,
		-1.0,
		-1.0],
		"type":"VEC3",
		"componentType":5126,
		"count":1945,
		"byteOffset":12,
		"max":[1.0,
		1.0,
		1.0]
	},
	{
		"bufferView":11,
		"min":[0.0,
		0.0],
		"type":"VEC2",
		"componentType":5126,
		"count":1945,
		"byteOffset":24,
		"max":[1.0,
		1.0]
	},
	{
		"bufferView":12,
		"min":[0],
		"type":"SCALAR",
		"componentType":5123,
		"count":11991,
		"byteOffset":0,
		"max":[2302]
	},
	{
		"bufferView":13,
		"min":[-0.010347884148359299,
		-0.001258965115994215,
		-0.010350004769861699],
		"type":"VEC3",
		"componentType":5126,
		"count":2303,
		"byteOffset":0,
		"max":[0.010348491370677948,
		0.001258965115994215,
		0.01006891019642353]
	},
	{
		"bufferView":13,
		"min":[-1.0,
		-0.9999994039535523,
		-1.0],
		"type":"VEC3",
		"componentType":5126,
		"count":2303,
		"byteOffset":12,
		"max":[1.0,
		0.9999994039535523,
		1.0]
	},
	{
		"bufferView":13,
		"min":[0.0,
		0.0],
		"type":"VEC2",
		"componentType":5126,
		"count":2303,
		"byteOffset":24,
		"max":[1.0,
		1.0]
	}],
	"bufferViews":[{
		"buffer":0,
		"byteOffset":0,
		"byteLength":1440,
		"target":34963
	},
	{
		"buffer":0,
		"byteOffset":1440,
		"byteLength":9536,
		"target":34962,
		"byteStride":32
	},
	{
		"buffer":1,
		"byteOffset":0,
		"byteLength":3276,
		"target":34963
	},
	{
		"buffer":1,
		"byteOffset":3276,
		"byteLength":18880,
		"target":34962,
		"byteStride":32
	},
	{
		"buffer":2,
		"byteOffset":0,
		"byteLength":2592,
		"target":34963
	},
	{
		"buffer":2,
		"byteOffset":2592,
		"byteLength":15552,
		"target":34962,
		"byteStride":32
	},
	{
		"buffer":3,
		"byteOffset":0,
		"byteLength":2592,
		"target":34963
	},
	{
		"buffer":3,
		"byteOffset":2592,
		"byteLength":15488,
		"target":34962,
		"byteStride":32
	},
	{
		"buffer":4,
		"byteOffset":0,
		"byteLength":354,
		"target":34963
	},
	{
		"buffer":4,
		"byteOffset":356,
		"byteLength":2272,
		"target":34962,
		"byteStride":32
	},
	{
		"buffer":5,
		"byteOffset":0,
		"byteLength":21504,
		"target":34963
	},
	{
		"buffer":5,
		"byteOffset":21504,
		"byteLength":62240,
		"target":34962,
		"byteStride":32
	},
	{
		"buffer":6,
		"byteOffset":0,
		"byteLength":23982,
		"target":34963
	},
	{
		"buffer":6,
		"byteOffset":23984,
		"byteLength":73696,
		"target":34962,
		"byteStride":32
	}],
	"buffers":[{
		"uri":"data:application/octet-stream;base64,",
		"byteLength":10976
	},
	{
		"uri":"data:application/octet-stream;base64,",
		"byteLength":22156
	},
	{
		"uri":"data:application/octet-stream;base64,",
		"byteLength":18144
	},
	{
		"uri":"data:application/octet-stream;base64,",
		"byteLength":18080
	},
	{
		"uri":"data:application/octet-stream;base64,",
		"byteLength":2628
	},
	{
		"uri":"data:application/octet-stream;base64,",
		"byteLength":83744
	},
	{
		"uri":"data:application/octet-stream;base64,",
		"byteLength":97680
	}],
	"samplers":[{
		"magFilter":9729,
		"minFilter":9729,
		"wrapS":10497,
		"wrapT":10497
	}],
	"textures":[{
		"sampler":0,
		"source":0
	}],
	"materials":[{
		"pbrMetallicRoughness":{
			"baseColorFactor":[0.0,
			0.0,
			0.0,
			1.0],
			"metallicFactor":0.0,
			"roughnessFactor":0.05
		},
		"emissiveFactor":[0.0,
		0.0,
		0.0],
		"alphaMode":"OPAQUE",
		"doubleSided":false,
		"name":"Gold_70th"
	},
	{
		"pbrMetallicRoughness":{
			"baseColorTexture":{
				"index":0
			},
			"baseColorFactor":[1.0,
			1.0,
			1.0,
			1.0],
			"metallicFactor":0.35,
			"roughnessFactor":0.3
		},
		"emissiveFactor":[0.0,
		0.0,
		0.0],
		"alphaMode":"OPAQUE",
		"doubleSided":false,
		"name":"Pearl_70th"
	}]
}