{
	"asset":{
		"version":"2.0",
		"generator":""
	},
	"scenes":[{
		"nodes":[0]
	}],
	"images":[{
		"uri":"data:image/png;base64,"
	}],
	"nodes":[{
		"name":"E4314",
		"children":[1,
		2]
	},
	{
		"translation":[-0.009999999776482582,
		0.0,
		0.0],
		"name":"E4314.2",
		"rotation":[0.0,
		0.0,
		0.0,
		-1.0],
		"scale":[1.0,
		1.0,
		1.0],
		"children":[3]
	},
	{
		"translation":[0.009999999776482582,
		0.0,
		0.0],
		"name":"E4314.1",
		"rotation":[0.0,
		0.0,
		0.0,
		-1.0],
		"scale":[1.0,
		1.0,
		1.0],
		"children":[4]
	},
	{
		"translation":[0.009762069210410118,
		0.002252118196338415,
		0.0],
		"name":"offset",
		"rotation":[0.0,
		0.0,
		0.9961947202682495,
		-0.08715574443340302],
		"scale":[1.0,
		1.0,
		1.0],
		"children":[5,
		6]
	},
	{
		"translation":[-0.009999999776482582,
		0.0,
		0.0],
		"name":"offset",
		"rotation":[0.0,
		0.0,
		0.08715574443340302,
		0.9961947202682495],
		"scale":[1.0,
		1.0,
		1.0],
		"children":[7,
		8]
	},
	{
		"translation":[-0.002710909117013216,
		0.0,
		0.0],
		"name":"Cloner_Pearls",
		"rotation":[0.0,
		0.0,
		0.08715574443340302,
		-0.9961947202682495],
		"scale":[1.0,
		1.0,
		1.0],
		"children":[9,
		10,
		11]
	},
	{
		"name":"Earrings",
		"children":[12,
		13,
		14,
		15]
	},
	{
		"translation":[-0.002710909117013216,
		0.0,
		0.0],
		"name":"Cloner_Pearls",
		"rotation":[0.0,
		0.0,
		0.08715574443340302,
		-0.9961947202682495],
		"scale":[1.0,
		1.0,
		1.0],
		"children":[16,
		17,
		18]
	},
	{
		"name":"Earrings",
		"children":[19,
		20,
		21,
		22]
	},
	{
		"translation":[0.0,
		-0.006649999879300594,
		0.0],
		"name":"SDS_Pearls 0",
		"rotation":[0.0,
		0.0,
		0.0,
		-1.0],
		"scale":[1.0,
		1.0,
		1.0],
		"children":[23]
	},
	{
		"name":"SDS_Pearls 1",
		"children":[24]
	},
	{
		"translation":[0.0,
		0.006649999879300594,
		0.0],
		"name":"SDS_Pearls 2",
		"rotation":[0.0,
		0.0,
		0.0,
		-1.0],
		"scale":[1.0,
		1.0,
		1.0],
		"children":[25]
	},
	{
		"translation":[0.008404800668358803,
		-0.000437016598880291,
		-0.002303674817085266],
		"name":"Diamond_Round(1)[1][1]",
		"mesh":0,
		"rotation":[0.0,
		0.0,
		0.0,
		-1.0],
		"scale":[1.0,
		1.0,
		1.0]
	},
	{
		"translation":[0.006774663459509611,
		-0.0001038908667396754,
		-0.009803126566112042],
		"name":"Diamond_Round(1)[1][2]",
		"mesh":1,
		"rotation":[0.0,
		0.0,
		0.0,
		-1.0],
		"scale":[1.0,
		1.0,
		1.0]
	},
	{
		"translation":[0.009753583930432797,
		-0.0004502657684497535,
		-3.8512823632008886e-19],
		"name":"Cylinder",
		"mesh":2,
		"rotation":[0.0,
		0.0,
		0.08715574443340302,
		-0.9961947202682495],
		"scale":[1.0,
		1.0,
		1.0]
	},
	{
		"translation":[0.011096660979092121,
		-0.0008208535728044808,
		0.0],
		"name":"Mesh_Cube",
		"mesh":3,
		"rotation":[0.0,
		0.0,
		0.08715574443340302,
		-0.9961947202682495],
		"scale":[1.0,
		1.0,
		1.0]
	},
	{
		"translation":[0.0,
		-0.006649999879300594,
		0.0],
		"name":"SDS_Pearls 0",
		"rotation":[0.0,
		0.0,
		0.0,
		-1.0],
		"scale":[1.0,
		1.0,
		1.0],
		"children":[26]
	},
	{
		"name":"SDS_Pearls 1",
		"children":[27]
	},
	{
		"translation":[0.0,
		0.006649999879300594,
		0.0],
		"name":"SDS_Pearls 2",
		"rotation":[0.0,
		0.0,
		0.0,
		-1.0],
		"scale":[1.0,
		1.0,
		1.0],
		"children":[28]
	},
	{
		"translation":[0.008404800668358803,
		-0.000437016598880291,
		-0.002303674817085266],
		"name":"Diamond_Round(1)[1][1]",
		"mesh":4,
		"rotation":[0.0,
		0.0,
		0.0,
		-1.0],
		"scale":[1.0,
		1.0,
		1.0]
	},
	{
		"translation":[0.006774663459509611,
		-0.0001038908667396754,
		-0.009803126566112042],
		"name":"Diamond_Round(1)[1][2]",
		"mesh":5,
		"rotation":[0.0,
		0.0,
		0.0,
		-1.0],
		"scale":[1.0,
		1.0,
		1.0]
	},
	{
		"translation":[0.009753583930432797,
		-0.0004502657684497535,
		-3.8512823632008886e-19],
		"name":"Cylinder",
		"mesh":6,
		"rotation":[0.0,
		0.0,
		0.08715574443340302,
		-0.9961947202682495],
		"scale":[1.0,
		1.0,
		1.0]
	},
	{
		"translation":[0.011096660979092121,
		-0.0008208535728044808,
		0.0],
		"name":"Mesh_Cube",
		"mesh":7,
		"rotation":[0.0,
		0.0,
		0.08715574443340302,
		-0.9961947202682495],
		"scale":[1.0,
		1.0,
		1.0]
	},
	{
		"translation":[0.009359431453049183,
		0.0015448409831151367,
		0.00002499999936844688],
		"name":"Mesh_Pearl",
		"mesh":8,
		"rotation":[0.0,
		0.0,
		0.0,
		-1.0],
		"scale":[1.0,
		1.0,
		1.0]
	},
	{
		"translation":[0.009359431453049183,
		0.0015448409831151367,
		0.00002499999936844688],
		"name":"Mesh_Pearl",
		"mesh":8,
		"rotation":[0.0,
		0.0,
		0.0,
		-1.0],
		"scale":[1.0,
		1.0,
		1.0]
	},
	{
		"translation":[0.009359431453049183,
		0.0015448409831151367,
		0.00002499999936844688],
		"name":"Mesh_Pearl",
		"mesh":8,
		"rotation":[0.0,
		0.0,
		0.0,
		-1.0],
		"scale":[1.0,
		1.0,
		1.0]
	},
	{
		"translation":[0.009359431453049183,
		0.0015448409831151367,
		0.00002499999936844688],
		"name":"Mesh_Pearl",
		"mesh":9,
		"rotation":[0.0,
		0.0,
		0.0,
		-1.0],
		"scale":[1.0,
		1.0,
		1.0]
	},
	{
		"translation":[0.009359431453049183,
		0.0015448409831151367,
		0.00002499999936844688],
		"name":"Mesh_Pearl",
		"mesh":9,
		"rotation":[0.0,
		0.0,
		0.0,
		-1.0],
		"scale":[1.0,
		1.0,
		1.0]
	},
	{
		"translation":[0.009359431453049183,
		0.0015448409831151367,
		0.00002499999936844688],
		"name":"Mesh_Pearl",
		"mesh":9,
		"rotation":[0.0,
		0.0,
		0.0,
		-1.0],
		"scale":[1.0,
		1.0,
		1.0]
	}],
	"meshes":[{
		"name":"Diamond_Round(1)[1][1]",
		"primitives":[{
			"attributes":{
				"POSITION":1,
				"NORMAL":2,
				"TEXCOORD_0":3
			},
			"indices":0,
			"material":0
		}]
	},
	{
		"name":"Diamond_Round(1)[1][2]",
		"primitives":[{
			"attributes":{
				"POSITION":5,
				"NORMAL":6,
				"TEXCOORD_0":7
			},
			"indices":4,
			"material":0
		}]
	},
	{
		"name":"Cylinder",
		"primitives":[{
			"attributes":{
				"POSITION":9,
				"NORMAL":10,
				"TEXCOORD_0":11
			},
			"indices":8,
			"material":0
		}]
	},
	{
		"name":"Mesh_Cube",
		"primitives":[{
			"attributes":{
				"POSITION":13,
				"NORMAL":14,
				"TEXCOORD_0":15
			},
			"indices":12,
			"material":0
		}]
	},
	{
		"name":"Diamond_Round(1)[1][1]",
		"primitives":[{
			"attributes":{
				"POSITION":17,
				"NORMAL":18,
				"TEXCOORD_0":19
			},
			"indices":16,
			"material":0
		}]
	},
	{
		"name":"Diamond_Round(1)[1][2]",
		"primitives":[{
			"attributes":{
				"POSITION":21,
				"NORMAL":22,
				"TEXCOORD_0":23
			},
			"indices":20,
			"material":0
		}]
	},
	{
		"name":"Cylinder",
		"primitives":[{
			"attributes":{
				"POSITION":25,
				"NORMAL":26,
				"TEXCOORD_0":27
			},
			"indices":24,
			"material":0
		}]
	},
	{
		"name":"Mesh_Cube",
		"primitives":[{
			"attributes":{
				"POSITION":29,
				"NORMAL":30,
				"TEXCOORD_0":31
			},
			"indices":28,
			"material":0
		}]
	},
	{
		"name":"Mesh_Pearl",
		"primitives":[{
			"attributes":{
				"POSITION":33,
				"NORMAL":34,
				"TEXCOORD_0":35
			},
			"indices":32,
			"material":1
		}]
	},
	{
		"name":"Mesh_Pearl",
		"primitives":[{
			"attributes":{
				"POSITION":37,
				"NORMAL":38,
				"TEXCOORD_0":39
			},
			"indices":36,
			"material":1
		}]
	}],
	"accessors":[{
		"bufferView":0,
		"min":[0],
		"type":"SCALAR",
		"componentType":5123,
		"count":3540,
		"byteOffset":0,
		"max":[873]
	},
	{
		"bufferView":1,
		"min":[-0.0026645606849342586,
		-0.001261962577700615,
		-0.0019191770115867258],
		"type":"VEC3",
		"componentType":5126,
		"count":874,
		"byteOffset":0,
		"max":[0.0026645606849342586,
		0.001261962577700615,
		0.0019191770115867258]
	},
	{
		"bufferView":1,
		"min":[-0.9996835589408875,
		-0.9923627376556397,
		-1.0],
		"type":"VEC3",
		"componentType":5126,
		"count":874,
		"byteOffset":12,
		"max":[0.999585747718811,
		0.999878466129303,
		1.0]
	},
	{
		"bufferView":1,
		"min":[-1.9110984794679099e-7,
		-5.4014954287140429e-8],
		"type":"VEC2",
		"componentType":5126,
		"count":874,
		"byteOffset":24,
		"max":[1.0,
		1.0]
	},
	{
		"bufferView":2,
		"min":[0],
		"type":"SCALAR",
		"componentType":5123,
		"count":660,
		"byteOffset":0,
		"max":[189]
	},
	{
		"bufferView":3,
		"min":[-0.00043364238808862865,
		-0.0004304048197809607,
		-0.005956405308097601],
		"type":"VEC3",
		"componentType":5126,
		"count":190,
		"byteOffset":0,
		"max":[0.00043364238808862865,
		0.0004304048197809607,
		0.005956405308097601]
	},
	{
		"bufferView":3,
		"min":[-0.9999540448188782,
		-0.9924913644790649,
		-1.0],
		"type":"VEC3",
		"componentType":5126,
		"count":190,
		"byteOffset":12,
		"max":[0.9999540448188782,
		0.9924913644790649,
		1.0]
	},
	{
		"bufferView":3,
		"min":[-5.358922073456229e-12,
		-0.000029080139938741924],
		"type":"VEC2",
		"componentType":5126,
		"count":190,
		"byteOffset":24,
		"max":[1.0,
		1.0]
	},
	{
		"bufferView":4,
		"min":[0],
		"type":"SCALAR",
		"componentType":5123,
		"count":43776,
		"byteOffset":0,
		"max":[7952]
	},
	{
		"bufferView":5,
		"min":[-0.0010000125039368868,
		-0.007016127463430166,
		-0.0003661275841295719],
		"type":"VEC3",
		"componentType":5126,
		"count":7953,
		"byteOffset":0,
		"max":[0.0010000125039368868,
		0.007016127463430166,
		0.0003661275841295719]
	},
	{
		"bufferView":5,
		"min":[-1.0,
		-1.0,
		-1.0],
		"type":"VEC3",
		"componentType":5126,
		"count":7953,
		"byteOffset":12,
		"max":[1.0,
		1.0,
		1.0]
	},
	{
		"bufferView":5,
		"min":[-0.05564545840024948,
		-0.038308799266815189],
		"type":"VEC2",
		"componentType":5126,
		"count":7953,
		"byteOffset":24,
		"max":[1.0519628524780274,
		1.063671350479126]
	},
	{
		"bufferView":6,
		"min":[0],
		"type":"SCALAR",
		"componentType":5123,
		"count":9216,
		"byteOffset":0,
		"max":[1863]
	},
	{
		"bufferView":7,
		"min":[-0.0012034275569021702,
		-0.009574676863849163,
		-0.0012034275569021702],
		"type":"VEC3",
		"componentType":5126,
		"count":1864,
		"byteOffset":0,
		"max":[0.0012034275569021702,
		0.009574676863849163,
		0.0012034275569021702]
	},
	{
		"bufferView":7,
		"min":[-1.0,
		-1.0,
		-1.0],
		"type":"VEC3",
		"componentType":5126,
		"count":1864,
		"byteOffset":12,
		"max":[1.0,
		1.0,
		1.0]
	},
	{
		"bufferView":7,
		"min":[0.0,
		0.0],
		"type":"VEC2",
		"componentType":5126,
		"count":1864,
		"byteOffset":24,
		"max":[1.0,
		1.0]
	},
	{
		"bufferView":8,
		"min":[0],
		"type":"SCALAR",
		"componentType":5123,
		"count":3540,
		"byteOffset":0,
		"max":[873]
	},
	{
		"bufferView":9,
		"min":[-0.0026645606849342586,
		-0.001261962577700615,
		-0.0019191770115867258],
		"type":"VEC3",
		"componentType":5126,
		"count":874,
		"byteOffset":0,
		"max":[0.0026645606849342586,
		0.001261962577700615,
		0.0019191770115867258]
	},
	{
		"bufferView":9,
		"min":[-0.9996835589408875,
		-0.9923627376556397,
		-1.0],
		"type":"VEC3",
		"componentType":5126,
		"count":874,
		"byteOffset":12,
		"max":[0.999585747718811,
		0.999878466129303,
		1.0]
	},
	{
		"bufferView":9,
		"min":[-1.9110984794679099e-7,
		-5.4014954287140429e-8],
		"type":"VEC2",
		"componentType":5126,
		"count":874,
		"byteOffset":24,
		"max":[1.0,
		1.0]
	},
	{
		"bufferView":10,
		"min":[0],
		"type":"SCALAR",
		"componentType":5123,
		"count":660,
		"byteOffset":0,
		"max":[189]
	},
	{
		"bufferView":11,
		"min":[-0.00043364238808862865,
		-0.0004304048197809607,
		-0.005956405308097601],
		"type":"VEC3",
		"componentType":5126,
		"count":190,
		"byteOffset":0,
		"max":[0.00043364238808862865,
		0.0004304048197809607,
		0.005956405308097601]
	},
	{
		"bufferView":11,
		"min":[-0.9999540448188782,
		-0.9924913644790649,
		-1.0],
		"type":"VEC3",
		"componentType":5126,
		"count":190,
		"byteOffset":12,
		"max":[0.9999540448188782,
		0.9924913644790649,
		1.0]
	},
	{
		"bufferView":11,
		"min":[-5.358922073456229e-12,
		-0.000029080139938741924],
		"type":"VEC2",
		"componentType":5126,
		"count":190,
		"byteOffset":24,
		"max":[1.0,
		1.0]
	},
	{
		"bufferView":12,
		"min":[0],
		"type":"SCALAR",
		"componentType":5123,
		"count":43776,
		"byteOffset":0,
		"max":[7952]
	},
	{
		"bufferView":13,
		"min":[-0.0010000125039368868,
		-0.007016127463430166,
		-0.0003661275841295719],
		"type":"VEC3",
		"componentType":5126,
		"count":7953,
		"byteOffset":0,
		"max":[0.0010000125039368868,
		0.007016127463430166,
		0.0003661275841295719]
	},
	{
		"bufferView":13,
		"min":[-1.0,
		-1.0,
		-1.0],
		"type":"VEC3",
		"componentType":5126,
		"count":7953,
		"byteOffset":12,
		"max":[1.0,
		1.0,
		1.0]
	},
	{
		"bufferView":13,
		"min":[-0.05564545840024948,
		-0.038308799266815189],
		"type":"VEC2",
		"componentType":5126,
		"count":7953,
		"byteOffset":24,
		"max":[1.0519628524780274,
		1.063671350479126]
	},
	{
		"bufferView":14,
		"min":[0],
		"type":"SCALAR",
		"componentType":5123,
		"count":9216,
		"byteOffset":0,
		"max":[1863]
	},
	{
		"bufferView":15,
		"min":[-0.0012034275569021702,
		-0.009574676863849163,
		-0.0012034275569021702],
		"type":"VEC3",
		"componentType":5126,
		"count":1864,
		"byteOffset":0,
		"max":[0.0012034275569021702,
		0.009574676863849163,
		0.0012034275569021702]
	},
	{
		"bufferView":15,
		"min":[-1.0,
		-1.0,
		-1.0],
		"type":"VEC3",
		"componentType":5126,
		"count":1864,
		"byteOffset":12,
		"max":[1.0,
		1.0,
		1.0]
	},
	{
		"bufferView":15,
		"min":[0.0,
		0.0],
		"type":"VEC2",
		"componentType":5126,
		"count":1864,
		"byteOffset":24,
		"max":[1.0,
		1.0]
	},
	{
		"bufferView":16,
		"min":[0],
		"type":"SCALAR",
		"componentType":5123,
		"count":10752,
		"byteOffset":0,
		"max":[1944]
	},
	{
		"bufferView":17,
		"min":[-0.0032574564684182407,
		-0.0033252497669309379,
		-0.0032574564684182407],
		"type":"VEC3",
		"componentType":5126,
		"count":1945,
		"byteOffset":0,
		"max":[0.0032574564684182407,
		0.0033252497669309379,
		0.0032574564684182407]
	},
	{
		"bufferView":17,
		"min":[-1.0,
		-1.0,
		-1.0],
		"type":"VEC3",
		"componentType":5126,
		"count":1945,
		"byteOffset":12,
		"max":[1.0,
		1.0,
		1.0]
	},
	{
		"bufferView":17,
		"min":[0.0,
		0.0],
		"type":"VEC2",
		"componentType":5126,
		"count":1945,
		"byteOffset":24,
		"max":[1.0,
		1.0]
	},
	{
		"bufferView":18,
		"min":[0],
		"type":"SCALAR",
		"componentType":5123,
		"count":10752,
		"byteOffset":0,
		"max":[1944]
	},
	{
		"bufferView":19,
		"min":[-0.0032574564684182407,
		-0.0033252497669309379,
		-0.0032574564684182407],
		"type":"VEC3",
		"componentType":5126,
		"count":1945,
		"byteOffset":0,
		"max":[0.0032574564684182407,
		0.0033252497669309379,
		0.0032574564684182407]
	},
	{
		"bufferView":19,
		"min":[-1.0,
		-1.0,
		-1.0],
		"type":"VEC3",
		"componentType":5126,
		"count":1945,
		"byteOffset":12,
		"max":[1.0,
		1.0,
		1.0]
	},
	{
		"bufferView":19,
		"min":[0.0,
		0.0],
		"type":"VEC2",
		"componentType":5126,
		"count":1945,
		"byteOffset":24,
		"max":[1.0,
		1.0]
	}],
	"bufferViews":[{
		"buffer":0,
		"byteOffset":0,
		"byteLength":7080,
		"target":34963
	},
	{
		"buffer":0,
		"byteOffset":7080,
		"byteLength":27968,
		"target":34962,
		"byteStride":32
	},
	{
		"buffer":1,
		"byteOffset":0,
		"byteLength":1320,
		"target":34963
	},
	{
		"buffer":1,
		"byteOffset":1320,
		"byteLength":6080,
		"target":34962,
		"byteStride":32
	},
	{
		"buffer":2,
		"byteOffset":0,
		"byteLength":87552,
		"target":34963
	},
	{
		"buffer":2,
		"byteOffset":87552,
		"byteLength":254496,
		"target":34962,
		"byteStride":32
	},
	{
		"buffer":3,
		"byteOffset":0,
		"byteLength":18432,
		"target":34963
	},
	{
		"buffer":3,
		"byteOffset":18432,
		"byteLength":59648,
		"target":34962,
		"byteStride":32
	},
	{
		"buffer":4,
		"byteOffset":0,
		"byteLength":7080,
		"target":34963
	},
	{
		"buffer":4,
		"byteOffset":7080,
		"byteLength":27968,
		"target":34962,
		"byteStride":32
	},
	{
		"buffer":5,
		"byteOffset":0,
		"byteLength":1320,
		"target":34963
	},
	{
		"buffer":5,
		"byteOffset":1320,
		"byteLength":6080,
		"target":34962,
		"byteStride":32
	},
	{
		"buffer":6,
		"byteOffset":0,
		"byteLength":87552,
		"target":34963
	},
	{
		"buffer":6,
		"byteOffset":87552,
		"byteLength":254496,
		"target":34962,
		"byteStride":32
	},
	{
		"buffer":7,
		"byteOffset":0,
		"byteLength":18432,
		"target":34963
	},
	{
		"buffer":7,
		"byteOffset":18432,
		"byteLength":59648,
		"target":34962,
		"byteStride":32
	},
	{
		"buffer":8,
		"byteOffset":0,
		"byteLength":21504,
		"target":34963
	},
	{
		"buffer":8,
		"byteOffset":21504,
		"byteLength":62240,
		"target":34962,
		"byteStride":32
	},
	{
		"buffer":9,
		"byteOffset":0,
		"byteLength":21504,
		"target":34963
	},
	{
		"buffer":9,
		"byteOffset":21504,
		"byteLength":62240,
		"target":34962,
		"byteStride":32
	}],
	"buffers":[{
		"uri":"data:application/octet-stream;base64,",
		"byteLength":35048
	},
	{
		"uri":"data:application/octet-stream;base64,",
		"byteLength":7400
	},
	{
		"uri":"data:application/octet-stream;base64,",
		"byteLength":342048
	},
	{
		"uri":"data:application/octet-stream;base64,",
		"byteLength":78080
	},
	{
		"uri":"data:application/octet-stream;base64,",
		"byteLength":35048
	},
	{
		"uri":"data:application/octet-stream;base64,",
		"byteLength":7400
	},
	{
		"uri":"data:application/octet-stream;base64,",
		"byteLength":342048
	},
	{
		"uri":"data:application/octet-stream;base64,",
		"byteLength":78080
	},
	{
		"uri":"data:application/octet-stream;base64,",
		"byteLength":83744
	},
	{
		"uri":"data:application/octet-stream;base64,",
		"byteLength":83744
	}],
	"samplers":[{
		"magFilter":9729,
		"minFilter":9729,
		"wrapS":10497,
		"wrapT":10497
	}],
	"textures":[{
		"sampler":0,
		"source":0
	}],
	"materials":[{
		"pbrMetallicRoughness":{
			"baseColorFactor":[0.0,
			0.0,
			0.0,
			1.0],
			"metallicFactor":0.0,
			"roughnessFactor":0.05
		},
		"emissiveFactor":[0.0,
		0.0,
		0.0],
		"alphaMode":"OPAQUE",
		"doubleSided":false,
		"name":"Gold_70th"
	},
	{
		"pbrMetallicRoughness":{
			"baseColorTexture":{
				"index":0
			},
			"baseColorFactor":[1.0,
			1.0,
			1.0,
			1.0],
			"metallicFactor":0.35,
			"roughnessFactor":0.3
		},
		"emissiveFactor":[0.0,
		0.0,
		0.0],
		"alphaMode":"OPAQUE",
		"doubleSided":false,
		"name":"Pearl_70th"
	}]
}