{
	"asset":{
		"version":"2.0",
		"generator":""
	},
	"scenes":[{
		"nodes":[0]
	}],
	"images":[{
		"uri":"data:image/png;base64,"
	}],
	"nodes":[{
		"name":"R4814",
		"children":[1,
		2]
	},
	{
		"name":"Ring",
		"mesh":0
	},
	{
		"translation":[0.0,
		0.0,
		0.014860822819173336],
		"name":"Pearls",
		"rotation":[0.0,
		0.0,
		0.0,
		-1.0],
		"scale":[1.0,
		1.0,
		1.0],
		"children":[3]
	},
	{
		"translation":[0.0,
		0.0,
		1.773223914369737e-7],
		"name":"Cloner_Pearls",
		"rotation":[0.0,
		0.0,
		0.0,
		-1.0],
		"scale":[1.0,
		1.0,
		1.0],
		"children":[4,
		5,
		6]
	},
	{
		"translation":[-0.008264999836683274,
		0.0,
		0.0],
		"name":"SDS_Pearls 0",
		"rotation":[0.0,
		0.0,
		0.0,
		-1.0],
		"scale":[1.0,
		1.0,
		1.0],
		"children":[7]
	},
	{
		"name":"SDS_Pearls 1",
		"children":[8]
	},
	{
		"translation":[0.008264999836683274,
		0.0,
		0.0],
		"name":"SDS_Pearls 2",
		"rotation":[0.0,
		0.0,
		0.0,
		-1.0],
		"scale":[1.0,
		1.0,
		1.0],
		"children":[9]
	},
	{
		"translation":[0.0,
		0.0,
		-0.0003753429336939007],
		"name":"Mesh_Pearl",
		"mesh":1,
		"rotation":[0.0,
		0.0,
		7.450580596923828e-9,
		-1.0],
		"scale":[1.440000057220459,
		1.440000057220459,
		1.440000057220459]
	},
	{
		"translation":[0.0,
		0.0,
		-0.0003753429336939007],
		"name":"Mesh_Pearl",
		"mesh":1,
		"rotation":[0.0,
		0.0,
		7.450580596923828e-9,
		-1.0],
		"scale":[1.440000057220459,
		1.440000057220459,
		1.440000057220459]
	},
	{
		"translation":[0.0,
		0.0,
		-0.0003753429336939007],
		"name":"Mesh_Pearl",
		"mesh":1,
		"rotation":[0.0,
		0.0,
		7.450580596923828e-9,
		-1.0],
		"scale":[1.440000057220459,
		1.440000057220459,
		1.440000057220459]
	}],
	"meshes":[{
		"name":"Ring",
		"primitives":[{
			"attributes":{
				"POSITION":1,
				"NORMAL":2,
				"TEXCOORD_0":3
			},
			"indices":0,
			"material":0
		}]
	},
	{
		"name":"Mesh_Pearl",
		"primitives":[{
			"attributes":{
				"POSITION":5,
				"NORMAL":6,
				"TEXCOORD_0":7
			},
			"indices":4,
			"material":1
		}]
	}],
	"accessors":[{
		"bufferView":0,
		"min":[0],
		"type":"SCALAR",
		"componentType":5123,
		"count":60192,
		"byteOffset":0,
		"max":[11362]
	},
	{
		"bufferView":1,
		"min":[-0.010028953664004803,
		-0.0011933305067941547,
		-0.009818393737077713],
		"type":"VEC3",
		"componentType":5126,
		"count":11363,
		"byteOffset":0,
		"max":[0.010028953664004803,
		0.0011933305067941547,
		0.01036841981112957]
	},
	{
		"bufferView":1,
		"min":[-1.0,
		-1.0,
		-1.0],
		"type":"VEC3",
		"componentType":5126,
		"count":11363,
		"byteOffset":12,
		"max":[1.0,
		1.0,
		1.0]
	},
	{
		"bufferView":1,
		"min":[0.0,
		0.0],
		"type":"VEC2",
		"componentType":5126,
		"count":11363,
		"byteOffset":24,
		"max":[1.0,
		1.0]
	},
	{
		"bufferView":2,
		"min":[0],
		"type":"SCALAR",
		"componentType":5123,
		"count":10752,
		"byteOffset":0,
		"max":[1944]
	},
	{
		"bufferView":3,
		"min":[-0.0028761872090399267,
		-0.002936044940724969,
		-0.0028761872090399267],
		"type":"VEC3",
		"componentType":5126,
		"count":1945,
		"byteOffset":0,
		"max":[0.0028761872090399267,
		0.002936044940724969,
		0.0028761872090399267]
	},
	{
		"bufferView":3,
		"min":[-1.0,
		-1.0,
		-1.0],
		"type":"VEC3",
		"componentType":5126,
		"count":1945,
		"byteOffset":12,
		"max":[1.0,
		1.0,
		1.0]
	},
	{
		"bufferView":3,
		"min":[0.0,
		0.0],
		"type":"VEC2",
		"componentType":5126,
		"count":1945,
		"byteOffset":24,
		"max":[1.0,
		1.0]
	}],
	"bufferViews":[{
		"buffer":0,
		"byteOffset":0,
		"byteLength":120384,
		"target":34963
	},
	{
		"buffer":0,
		"byteOffset":120384,
		"byteLength":363616,
		"target":34962,
		"byteStride":32
	},
	{
		"buffer":1,
		"byteOffset":0,
		"byteLength":21504,
		"target":34963
	},
	{
		"buffer":1,
		"byteOffset":21504,
		"byteLength":62240,
		"target":34962,
		"byteStride":32
	}],
	"buffers":[{
		"uri":"data:application/octet-stream;base64,",
		"byteLength":484000
	},
	{
		"uri":"data:application/octet-stream;base64,",
		"byteLength":83744
	}],
	"samplers":[{
		"magFilter":9729,
		"minFilter":9729,
		"wrapS":10497,
		"wrapT":10497
	}],
	"textures":[{
		"sampler":0,
		"source":0
	}],
	"materials":[{
		"pbrMetallicRoughness":{
			"baseColorFactor":[0.0,
			0.0,
			0.0,
			1.0],
			"metallicFactor":0.0,
			"roughnessFactor":0.05
		},
		"emissiveFactor":[0.0,
		0.0,
		0.0],
		"alphaMode":"OPAQUE",
		"doubleSided":false,
		"name":"Gold_70th"
	},
	{
		"pbrMetallicRoughness":{
			"baseColorTexture":{
				"index":0
			},
			"baseColorFactor":[1.0,
			1.0,
			1.0,
			1.0],
			"metallicFactor":0.35,
			"roughnessFactor":0.3
		},
		"emissiveFactor":[0.0,
		0.0,
		0.0],
		"alphaMode":"OPAQUE",
		"doubleSided":false,
		"name":"Pearl_70th"
	}]
}