{
	"asset":{
		"version":"2.0",
		"generator":""
	},
	"scenes":[{
		"nodes":[0]
	}],
	"nodes":[{
		"name":"R4815",
		"children":[1]
	},
	{
		"name":"Model",
		"children":[2,
		3]
	},
	{
		"name":"Pearls",
		"children":[4,
		5]
	},
	{
		"name":"Ring",
		"mesh":0
	},
	{
		"name":"Pearls_1",
		"children":[6]
	},
	{
		"name":"Pearls_2",
		"children":[7]
	},
	{
		"name":"Cloner",
		"children":[8,
		9,
		10]
	},
	{
		"name":"Cloner",
		"children":[11,
		12,
		13,
		14]
	},
	{
		"translation":[-0.008100000210106373,
		0.0,
		0.0],
		"name":"SDS 0",
		"rotation":[0.0,
		0.0,
		0.0,
		-1.0],
		"scale":[1.0399999618530274,
		1.0399999618530274,
		1.0399999618530274],
		"children":[15]
	},
	{
		"translation":[0.0,
		0.0,
		0.0],
		"name":"SDS 1",
		"rotation":[0.0,
		0.0,
		0.0,
		-1.0],
		"scale":[1.0399999618530274,
		1.0399999618530274,
		1.0399999618530274],
		"children":[16]
	},
	{
		"translation":[0.008100000210106373,
		0.0,
		0.0],
		"name":"SDS 2",
		"rotation":[0.0,
		0.0,
		0.0,
		-1.0],
		"scale":[1.0399999618530274,
		1.0399999618530274,
		1.0399999618530274],
		"children":[17]
	},
	{
		"translation":[0.0,
		0.0,
		0.0],
		"name":"SDS 0",
		"rotation":[0.0,
		0.0,
		0.0,
		-1.0],
		"scale":[1.0399999618530274,
		1.0399999618530274,
		1.0399999618530274],
		"children":[18]
	},
	{
		"translation":[0.006409999914467335,
		0.0,
		0.0],
		"name":"SDS 1",
		"rotation":[0.0,
		0.0,
		0.0,
		-1.0],
		"scale":[1.0399999618530274,
		1.0399999618530274,
		1.0399999618530274],
		"children":[19]
	},
	{
		"translation":[0.01281999982893467,
		0.0,
		0.0],
		"name":"SDS 2",
		"rotation":[0.0,
		0.0,
		0.0,
		-1.0],
		"scale":[1.0399999618530274,
		1.0399999618530274,
		1.0399999618530274],
		"children":[20]
	},
	{
		"translation":[0.01923000067472458,
		0.0,
		0.0],
		"name":"SDS 3",
		"rotation":[0.0,
		0.0,
		0.0,
		-1.0],
		"scale":[1.0399999618530274,
		1.0399999618530274,
		1.0399999618530274],
		"children":[21]
	},
	{
		"translation":[0.017432061955332757,
		-0.0011298077879473568,
		0.014052176848053933],
		"name":"Sphere",
		"mesh":1,
		"rotation":[0.0,
		0.0,
		0.0,
		-1.0],
		"scale":[1.0,
		1.0,
		1.0]
	},
	{
		"translation":[0.017432061955332757,
		-0.0011298077879473568,
		0.014052176848053933],
		"name":"Sphere",
		"mesh":2,
		"rotation":[0.0,
		0.0,
		0.0,
		-1.0],
		"scale":[1.0,
		1.0,
		1.0]
	},
	{
		"translation":[0.017432061955332757,
		-0.0011298077879473568,
		0.014052176848053933],
		"name":"Sphere",
		"mesh":3,
		"rotation":[0.0,
		0.0,
		0.0,
		-1.0],
		"scale":[1.0,
		1.0,
		1.0]
	},
	{
		"translation":[-0.02033064514398575,
		0.0011298077879473568,
		0.014150261878967286],
		"name":"Sphere",
		"mesh":4,
		"rotation":[0.0,
		0.0,
		7.450580596923828e-9,
		-1.0],
		"scale":[0.7900000214576721,
		0.7900000214576721,
		0.7900000214576721]
	},
	{
		"translation":[-0.02033064514398575,
		0.0011298077879473568,
		0.014150261878967286],
		"name":"Sphere",
		"mesh":5,
		"rotation":[0.0,
		0.0,
		7.450580596923828e-9,
		-1.0],
		"scale":[0.7900000214576721,
		0.7900000214576721,
		0.7900000214576721]
	},
	{
		"translation":[-0.02033064514398575,
		0.0011298077879473568,
		0.014150261878967286],
		"name":"Sphere",
		"mesh":6,
		"rotation":[0.0,
		0.0,
		7.450580596923828e-9,
		-1.0],
		"scale":[0.7900000214576721,
		0.7900000214576721,
		0.7900000214576721]
	},
	{
		"translation":[-0.02033064514398575,
		0.0011298077879473568,
		0.014150261878967286],
		"name":"Sphere",
		"mesh":7,
		"rotation":[0.0,
		0.0,
		7.450580596923828e-9,
		-1.0],
		"scale":[0.7900000214576721,
		0.7900000214576721,
		0.7900000214576721]
	}],
	"meshes":[{
		"name":"Ring",
		"primitives":[{
			"attributes":{
				"POSITION":1,
				"NORMAL":2,
				"TEXCOORD_0":3
			},
			"indices":0,
			"material":0
		}]
	},
	{
		"name":"Sphere",
		"primitives":[{
			"attributes":{
				"POSITION":5,
				"NORMAL":6,
				"TEXCOORD_0":7
			},
			"indices":4,
			"material":1
		}]
	},
	{
		"name":"Sphere",
		"primitives":[{
			"attributes":{
				"POSITION":9,
				"NORMAL":10,
				"TEXCOORD_0":11
			},
			"indices":8,
			"material":1
		}]
	},
	{
		"name":"Sphere",
		"primitives":[{
			"attributes":{
				"POSITION":13,
				"NORMAL":14,
				"TEXCOORD_0":15
			},
			"indices":12,
			"material":1
		}]
	},
	{
		"name":"Sphere",
		"primitives":[{
			"attributes":{
				"POSITION":17,
				"NORMAL":18,
				"TEXCOORD_0":19
			},
			"indices":16,
			"material":1
		}]
	},
	{
		"name":"Sphere",
		"primitives":[{
			"attributes":{
				"POSITION":21,
				"NORMAL":22,
				"TEXCOORD_0":23
			},
			"indices":20,
			"material":1
		}]
	},
	{
		"name":"Sphere",
		"primitives":[{
			"attributes":{
				"POSITION":25,
				"NORMAL":26,
				"TEXCOORD_0":27
			},
			"indices":24,
			"material":1
		}]
	},
	{
		"name":"Sphere",
		"primitives":[{
			"attributes":{
				"POSITION":29,
				"NORMAL":30,
				"TEXCOORD_0":31
			},
			"indices":28,
			"material":1
		}]
	}],
	"accessors":[{
		"bufferView":0,
		"min":[0],
		"type":"SCALAR",
		"componentType":5123,
		"count":10242,
		"byteOffset":0,
		"max":[2399]
	},
	{
		"bufferView":1,
		"min":[-0.02264433540403843,
		-0.0023001772351562979,
		-0.0104975001886487],
		"type":"VEC3",
		"componentType":5126,
		"count":2400,
		"byteOffset":0,
		"max":[0.02777993306517601,
		0.002300000051036477,
		0.011619151569902897]
	},
	{
		"bufferView":1,
		"min":[-1.0,
		-1.0,
		-1.0],
		"type":"VEC3",
		"componentType":5126,
		"count":2400,
		"byteOffset":12,
		"max":[1.0,
		1.0,
		1.0]
	},
	{
		"bufferView":1,
		"min":[-1.0846947390849918e-13,
		-2.440742150611186e-7],
		"type":"VEC2",
		"componentType":5126,
		"count":2400,
		"byteOffset":24,
		"max":[1.0,
		1.0000004768371583]
	},
	{
		"bufferView":2,
		"min":[0],
		"type":"SCALAR",
		"componentType":5123,
		"count":10752,
		"byteOffset":0,
		"max":[1944]
	},
	{
		"bufferView":3,
		"min":[-0.003908653277903795,
		-0.003989995922893286,
		-0.003908653277903795],
		"type":"VEC3",
		"componentType":5126,
		"count":1945,
		"byteOffset":0,
		"max":[0.003908653277903795,
		0.003989995922893286,
		0.003908653277903795]
	},
	{
		"bufferView":3,
		"min":[-1.0,
		-1.0,
		-1.0],
		"type":"VEC3",
		"componentType":5126,
		"count":1945,
		"byteOffset":12,
		"max":[1.0,
		1.0,
		1.0]
	},
	{
		"bufferView":3,
		"min":[0.0,
		0.0],
		"type":"VEC2",
		"componentType":5126,
		"count":1945,
		"byteOffset":24,
		"max":[1.0,
		1.0]
	},
	{
		"bufferView":4,
		"min":[0],
		"type":"SCALAR",
		"componentType":5123,
		"count":10752,
		"byteOffset":0,
		"max":[1944]
	},
	{
		"bufferView":5,
		"min":[-0.003908653277903795,
		-0.003989995922893286,
		-0.003908653277903795],
		"type":"VEC3",
		"componentType":5126,
		"count":1945,
		"byteOffset":0,
		"max":[0.003908653277903795,
		0.003989995922893286,
		0.003908653277903795]
	},
	{
		"bufferView":5,
		"min":[-1.0,
		-1.0,
		-1.0],
		"type":"VEC3",
		"componentType":5126,
		"count":1945,
		"byteOffset":12,
		"max":[1.0,
		1.0,
		1.0]
	},
	{
		"bufferView":5,
		"min":[0.0,
		0.0],
		"type":"VEC2",
		"componentType":5126,
		"count":1945,
		"byteOffset":24,
		"max":[1.0,
		1.0]
	},
	{
		"bufferView":6,
		"min":[0],
		"type":"SCALAR",
		"componentType":5123,
		"count":10752,
		"byteOffset":0,
		"max":[1944]
	},
	{
		"bufferView":7,
		"min":[-0.003908653277903795,
		-0.003989995922893286,
		-0.003908653277903795],
		"type":"VEC3",
		"componentType":5126,
		"count":1945,
		"byteOffset":0,
		"max":[0.003908653277903795,
		0.003989995922893286,
		0.003908653277903795]
	},
	{
		"bufferView":7,
		"min":[-1.0,
		-1.0,
		-1.0],
		"type":"VEC3",
		"componentType":5126,
		"count":1945,
		"byteOffset":12,
		"max":[1.0,
		1.0,
		1.0]
	},
	{
		"bufferView":7,
		"min":[0.0,
		0.0],
		"type":"VEC2",
		"componentType":5126,
		"count":1945,
		"byteOffset":24,
		"max":[1.0,
		1.0]
	},
	{
		"bufferView":8,
		"min":[0],
		"type":"SCALAR",
		"componentType":5123,
		"count":10752,
		"byteOffset":0,
		"max":[1944]
	},
	{
		"bufferView":9,
		"min":[-0.003908653277903795,
		-0.003989995922893286,
		-0.003908653277903795],
		"type":"VEC3",
		"componentType":5126,
		"count":1945,
		"byteOffset":0,
		"max":[0.003908653277903795,
		0.003989995922893286,
		0.003908653277903795]
	},
	{
		"bufferView":9,
		"min":[-1.0,
		-1.0,
		-1.0],
		"type":"VEC3",
		"componentType":5126,
		"count":1945,
		"byteOffset":12,
		"max":[1.0,
		1.0,
		1.0]
	},
	{
		"bufferView":9,
		"min":[0.0,
		0.0],
		"type":"VEC2",
		"componentType":5126,
		"count":1945,
		"byteOffset":24,
		"max":[1.0,
		1.0]
	},
	{
		"bufferView":10,
		"min":[0],
		"type":"SCALAR",
		"componentType":5123,
		"count":10752,
		"byteOffset":0,
		"max":[1944]
	},
	{
		"bufferView":11,
		"min":[-0.003908653277903795,
		-0.003989995922893286,
		-0.003908653277903795],
		"type":"VEC3",
		"componentType":5126,
		"count":1945,
		"byteOffset":0,
		"max":[0.003908653277903795,
		0.003989995922893286,
		0.003908653277903795]
	},
	{
		"bufferView":11,
		"min":[-1.0,
		-1.0,
		-1.0],
		"type":"VEC3",
		"componentType":5126,
		"count":1945,
		"byteOffset":12,
		"max":[1.0,
		1.0,
		1.0]
	},
	{
		"bufferView":11,
		"min":[0.0,
		0.0],
		"type":"VEC2",
		"componentType":5126,
		"count":1945,
		"byteOffset":24,
		"max":[1.0,
		1.0]
	},
	{
		"bufferView":12,
		"min":[0],
		"type":"SCALAR",
		"componentType":5123,
		"count":10752,
		"byteOffset":0,
		"max":[1944]
	},
	{
		"bufferView":13,
		"min":[-0.003908653277903795,
		-0.003989995922893286,
		-0.003908653277903795],
		"type":"VEC3",
		"componentType":5126,
		"count":1945,
		"byteOffset":0,
		"max":[0.003908653277903795,
		0.003989995922893286,
		0.003908653277903795]
	},
	{
		"bufferView":13,
		"min":[-1.0,
		-1.0,
		-1.0],
		"type":"VEC3",
		"componentType":5126,
		"count":1945,
		"byteOffset":12,
		"max":[1.0,
		1.0,
		1.0]
	},
	{
		"bufferView":13,
		"min":[0.0,
		0.0],
		"type":"VEC2",
		"componentType":5126,
		"count":1945,
		"byteOffset":24,
		"max":[1.0,
		1.0]
	},
	{
		"bufferView":14,
		"min":[0],
		"type":"SCALAR",
		"componentType":5123,
		"count":10752,
		"byteOffset":0,
		"max":[1944]
	},
	{
		"bufferView":15,
		"min":[-0.003908653277903795,
		-0.003989995922893286,
		-0.003908653277903795],
		"type":"VEC3",
		"componentType":5126,
		"count":1945,
		"byteOffset":0,
		"max":[0.003908653277903795,
		0.003989995922893286,
		0.003908653277903795]
	},
	{
		"bufferView":15,
		"min":[-1.0,
		-1.0,
		-1.0],
		"type":"VEC3",
		"componentType":5126,
		"count":1945,
		"byteOffset":12,
		"max":[1.0,
		1.0,
		1.0]
	},
	{
		"bufferView":15,
		"min":[0.0,
		0.0],
		"type":"VEC2",
		"componentType":5126,
		"count":1945,
		"byteOffset":24,
		"max":[1.0,
		1.0]
	}],
	"bufferViews":[{
		"buffer":0,
		"byteOffset":0,
		"byteLength":20484,
		"target":34963
	},
	{
		"buffer":0,
		"byteOffset":20484,
		"byteLength":76800,
		"target":34962,
		"byteStride":32
	},
	{
		"buffer":1,
		"byteOffset":0,
		"byteLength":21504,
		"target":34963
	},
	{
		"buffer":1,
		"byteOffset":21504,
		"byteLength":62240,
		"target":34962,
		"byteStride":32
	},
	{
		"buffer":2,
		"byteOffset":0,
		"byteLength":21504,
		"target":34963
	},
	{
		"buffer":2,
		"byteOffset":21504,
		"byteLength":62240,
		"target":34962,
		"byteStride":32
	},
	{
		"buffer":3,
		"byteOffset":0,
		"byteLength":21504,
		"target":34963
	},
	{
		"buffer":3,
		"byteOffset":21504,
		"byteLength":62240,
		"target":34962,
		"byteStride":32
	},
	{
		"buffer":4,
		"byteOffset":0,
		"byteLength":21504,
		"target":34963
	},
	{
		"buffer":4,
		"byteOffset":21504,
		"byteLength":62240,
		"target":34962,
		"byteStride":32
	},
	{
		"buffer":5,
		"byteOffset":0,
		"byteLength":21504,
		"target":34963
	},
	{
		"buffer":5,
		"byteOffset":21504,
		"byteLength":62240,
		"target":34962,
		"byteStride":32
	},
	{
		"buffer":6,
		"byteOffset":0,
		"byteLength":21504,
		"target":34963
	},
	{
		"buffer":6,
		"byteOffset":21504,
		"byteLength":62240,
		"target":34962,
		"byteStride":32
	},
	{
		"buffer":7,
		"byteOffset":0,
		"byteLength":21504,
		"target":34963
	},
	{
		"buffer":7,
		"byteOffset":21504,
		"byteLength":62240,
		"target":34962,
		"byteStride":32
	}],
	"buffers":[{
		"uri":"data:application/octet-stream;base64,",
		"byteLength":97284
	},
	{
		"uri":"data:application/octet-stream;base64,",
		"byteLength":83744
	},
	{
		"uri":"data:application/octet-stream;base64,",
		"byteLength":83744
	},
	{
		"uri":"data:application/octet-stream;base64,",
		"byteLength":83744
	},
	{
		"uri":"data:application/octet-stream;base64,",
		"byteLength":83744
	},
	{
		"uri":"data:application/octet-stream;base64,",
		"byteLength":83744
	},
	{
		"uri":"data:application/octet-stream;base64,",
		"byteLength":83744
	},
	{
		"uri":"data:application/octet-stream;base64,",
		"byteLength":83744
	}],
	"materials":[{
		"pbrMetallicRoughness":{
			"baseColorFactor":[0.0,
			0.0,
			0.0,
			1.0],
			"metallicFactor":0.0,
			"roughnessFactor":0.20000000298023225
		},
		"emissiveFactor":[0.0,
		0.0,
		0.0],
		"alphaMode":"OPAQUE",
		"doubleSided":false,
		"name":"TASAKI-YG"
	},
	{
		"pbrMetallicRoughness":{
			"baseColorFactor":[1.0,
			1.0,
			1.0,
			1.0],
			"metallicFactor":0.5,
			"roughnessFactor":0.3
		},
		"emissiveFactor":[0.0,
		0.0,
		0.0],
		"alphaMode":"OPAQUE",
		"doubleSided":false,
		"name":"TASAKI-PEARIL"
	}]
}