{
	"asset":{
		"version":"2.0",
		"generator":""
	},
	"scenes":[{
		"nodes":[0]
	}],
	"nodes":[{
		"name":"E3842",
		"children":[1]
	},
	{
		"name":"Model",
		"children":[2,
		3]
	},
	{
		"translation":[-0.002761000068858266,
		0.0,
		0.00009999999747378752],
		"name":"Pearls",
		"rotation":[0.0,
		0.0,
		0.0,
		-1.0],
		"scale":[1.0,
		1.0,
		1.0],
		"children":[4]
	},
	{
		"translation":[0.0,
		0.0,
		-4.440892309431682e-19],
		"name":"Earrings",
		"rotation":[0.0,
		-0.7071067690849304,
		0.0,
		-0.7071067690849304],
		"scale":[1.0,
		1.0,
		1.0],
		"children":[5,
		6,
		7,
		8]
	},
	{
		"translation":[0.00005009086453355849,
		0.0,
		0.0],
		"name":"Cloner_Pearls",
		"rotation":[0.0,
		0.0,
		0.0,
		-1.0],
		"scale":[1.0,
		1.0,
		1.0],
		"children":[9,
		10,
		11,
		12,
		13]
	},
	{
		"translation":[0.0,
		0.0,
		1.8002307779676312e-19],
		"name":"Cylinder",
		"mesh":0,
		"rotation":[0.0,
		-0.7071067690849304,
		0.0,
		0.7071067690849304],
		"scale":[1.0,
		1.0,
		1.0]
	},
	{
		"translation":[0.002940000034868717,
		0.0,
		-0.007199999876320362],
		"name":"ArcCube-Cylinder_Bool",
		"mesh":1,
		"rotation":[0.0,
		-0.7071067690849304,
		0.0,
		0.7071067690849304],
		"scale":[1.0,
		1.0,
		1.0]
	},
	{
		"translation":[0.002940000034868717,
		0.0,
		-0.007199999876320362],
		"name":"CubeCylinder",
		"mesh":2,
		"rotation":[0.0,
		-0.7071067690849304,
		0.0,
		0.7071067690849304],
		"scale":[1.0,
		1.0,
		1.0]
	},
	{
		"translation":[0.004319814499467611,
		-7.584691097406449e-9,
		-0.002740599447861314],
		"name":"Cylinder_1",
		"mesh":3,
		"rotation":[0.0,
		-0.7071067690849304,
		0.0,
		0.7071067690849304],
		"scale":[1.0,
		1.0,
		1.0]
	},
	{
		"translation":[0.0,
		-0.011699999682605267,
		0.0],
		"name":"SDS_Pearls 0",
		"rotation":[0.0,
		0.0,
		0.0,
		-1.0],
		"scale":[1.0,
		1.0,
		1.0],
		"children":[14]
	},
	{
		"translation":[0.0,
		-0.005849999841302633,
		0.0],
		"name":"SDS_Pearls 1",
		"rotation":[0.0,
		0.0,
		0.0,
		-1.0],
		"scale":[1.0,
		1.0,
		1.0],
		"children":[15]
	},
	{
		"name":"SDS_Pearls 2",
		"children":[16]
	},
	{
		"translation":[0.0,
		0.005849999841302633,
		0.0],
		"name":"SDS_Pearls 3",
		"rotation":[0.0,
		0.0,
		0.0,
		-1.0],
		"scale":[1.0,
		1.0,
		1.0],
		"children":[17]
	},
	{
		"translation":[0.0,
		0.011699999682605267,
		0.0],
		"name":"SDS_Pearls 4",
		"rotation":[0.0,
		0.0,
		0.0,
		-1.0],
		"scale":[1.0,
		1.0,
		1.0],
		"children":[18]
	},
	{
		"name":"Mesh",
		"mesh":4
	},
	{
		"name":"Mesh",
		"mesh":4
	},
	{
		"name":"Mesh",
		"mesh":4
	},
	{
		"name":"Mesh",
		"mesh":4
	},
	{
		"name":"Mesh",
		"mesh":4
	}],
	"meshes":[{
		"name":"Cylinder",
		"primitives":[{
			"attributes":{
				"POSITION":1,
				"NORMAL":2,
				"TEXCOORD_0":3
			},
			"indices":0,
			"material":0
		}]
	},
	{
		"name":"ArcCube-Cylinder_Bool",
		"primitives":[{
			"attributes":{
				"POSITION":5,
				"NORMAL":6,
				"TEXCOORD_0":7
			},
			"indices":4,
			"material":0
		}]
	},
	{
		"name":"CubeCylinder",
		"primitives":[{
			"attributes":{
				"POSITION":9,
				"NORMAL":10,
				"TEXCOORD_0":11
			},
			"indices":8,
			"material":0
		}]
	},
	{
		"name":"Cylinder_1",
		"primitives":[{
			"attributes":{
				"POSITION":13,
				"NORMAL":14,
				"TEXCOORD_0":15
			},
			"indices":12,
			"material":0
		}]
	},
	{
		"name":"Mesh",
		"primitives":[{
			"attributes":{
				"POSITION":17,
				"NORMAL":18,
				"TEXCOORD_0":19
			},
			"indices":16,
			"material":1
		}]
	}],
	"accessors":[{
		"bufferView":0,
		"min":[0],
		"type":"SCALAR",
		"componentType":5123,
		"count":18240,
		"byteOffset":0,
		"max":[3594]
	},
	{
		"bufferView":1,
		"min":[-0.0010000122711062432,
		-0.012007911689579487,
		-0.00036791188176721334],
		"type":"VEC3",
		"componentType":5126,
		"count":3595,
		"byteOffset":0,
		"max":[0.0010000122711062432,
		0.012007911689579487,
		0.00036791188176721334]
	},
	{
		"bufferView":1,
		"min":[-1.0,
		-1.0,
		-1.0],
		"type":"VEC3",
		"componentType":5126,
		"count":3595,
		"byteOffset":12,
		"max":[1.0,
		1.0,
		1.0]
	},
	{
		"bufferView":1,
		"min":[-0.05837639793753624,
		-0.04086272418498993],
		"type":"VEC2",
		"componentType":5126,
		"count":3595,
		"byteOffset":24,
		"max":[1.052484154701233,
		1.066418170928955]
	},
	{
		"bufferView":2,
		"min":[0],
		"type":"SCALAR",
		"componentType":5123,
		"count":15972,
		"byteOffset":0,
		"max":[3745]
	},
	{
		"bufferView":3,
		"min":[0.003461800515651703,
		-0.000785831653047353,
		-0.0006840521818958223],
		"type":"VEC3",
		"componentType":5126,
		"count":3746,
		"byteOffset":0,
		"max":[0.008230021223425866,
		0.000785831653047353,
		0.0029401856008917095]
	},
	{
		"bufferView":3,
		"min":[-0.9999934434890747,
		-1.0,
		-1.0],
		"type":"VEC3",
		"componentType":5126,
		"count":3746,
		"byteOffset":12,
		"max":[0.9988861083984375,
		1.0,
		1.0]
	},
	{
		"bufferView":3,
		"min":[-2.0003116130828859,
		-0.10180297493934632],
		"type":"VEC2",
		"componentType":5126,
		"count":3746,
		"byteOffset":24,
		"max":[1.0968472957611085,
		1.066418170928955]
	},
	{
		"bufferView":4,
		"min":[0],
		"type":"SCALAR",
		"componentType":5123,
		"count":19056,
		"byteOffset":0,
		"max":[3955]
	},
	{
		"bufferView":5,
		"min":[0.007366714999079704,
		-0.01348546240478754,
		0.002137714996933937],
		"type":"VEC3",
		"componentType":5126,
		"count":3956,
		"byteOffset":0,
		"max":[0.008971285074949265,
		0.01348546240478754,
		0.0037422850728034975]
	},
	{
		"bufferView":5,
		"min":[-1.0,
		-1.0,
		-1.0],
		"type":"VEC3",
		"componentType":5126,
		"count":3956,
		"byteOffset":12,
		"max":[1.0,
		1.0,
		1.0]
	},
	{
		"bufferView":5,
		"min":[-0.05837639793753624,
		-0.04086272418498993],
		"type":"VEC2",
		"componentType":5126,
		"count":3956,
		"byteOffset":24,
		"max":[1.052484154701233,
		1.066418170928955]
	},
	{
		"bufferView":6,
		"min":[0],
		"type":"SCALAR",
		"componentType":5123,
		"count":3648,
		"byteOffset":0,
		"max":[718]
	},
	{
		"bufferView":7,
		"min":[-0.00036791188176721334,
		-0.00036791188176721334,
		-0.0010000122711062432],
		"type":"VEC3",
		"componentType":5126,
		"count":719,
		"byteOffset":0,
		"max":[0.00036791188176721334,
		0.00036791188176721334,
		0.0010000122711062432]
	},
	{
		"bufferView":7,
		"min":[-1.0,
		-1.0,
		-1.0],
		"type":"VEC3",
		"componentType":5126,
		"count":719,
		"byteOffset":12,
		"max":[1.0,
		1.0,
		1.0]
	},
	{
		"bufferView":7,
		"min":[-0.05837639793753624,
		-0.04086272418498993],
		"type":"VEC2",
		"componentType":5126,
		"count":719,
		"byteOffset":24,
		"max":[1.052484154701233,
		1.066418170928955]
	},
	{
		"bufferView":8,
		"min":[0],
		"type":"SCALAR",
		"componentType":5123,
		"count":10752,
		"byteOffset":0,
		"max":[1944]
	},
	{
		"bufferView":9,
		"min":[-0.0028761872090399267,
		-0.002936044940724969,
		-0.0028761872090399267],
		"type":"VEC3",
		"componentType":5126,
		"count":1945,
		"byteOffset":0,
		"max":[0.0028761872090399267,
		0.002936044940724969,
		0.0028761872090399267]
	},
	{
		"bufferView":9,
		"min":[-1.0,
		-1.0,
		-1.0],
		"type":"VEC3",
		"componentType":5126,
		"count":1945,
		"byteOffset":12,
		"max":[1.0,
		1.0,
		1.0]
	},
	{
		"bufferView":9,
		"min":[0.0,
		0.0],
		"type":"VEC2",
		"componentType":5126,
		"count":1945,
		"byteOffset":24,
		"max":[1.0,
		1.0]
	}],
	"bufferViews":[{
		"buffer":0,
		"byteOffset":0,
		"byteLength":36480,
		"target":34963
	},
	{
		"buffer":0,
		"byteOffset":36480,
		"byteLength":115040,
		"target":34962,
		"byteStride":32
	},
	{
		"buffer":1,
		"byteOffset":0,
		"byteLength":31944,
		"target":34963
	},
	{
		"buffer":1,
		"byteOffset":31944,
		"byteLength":119872,
		"target":34962,
		"byteStride":32
	},
	{
		"buffer":2,
		"byteOffset":0,
		"byteLength":38112,
		"target":34963
	},
	{
		"buffer":2,
		"byteOffset":38112,
		"byteLength":126592,
		"target":34962,
		"byteStride":32
	},
	{
		"buffer":3,
		"byteOffset":0,
		"byteLength":7296,
		"target":34963
	},
	{
		"buffer":3,
		"byteOffset":7296,
		"byteLength":23008,
		"target":34962,
		"byteStride":32
	},
	{
		"buffer":4,
		"byteOffset":0,
		"byteLength":21504,
		"target":34963
	},
	{
		"buffer":4,
		"byteOffset":21504,
		"byteLength":62240,
		"target":34962,
		"byteStride":32
	}],
	"buffers":[{
		"uri":"data:application/octet-stream;base64,",
		"byteLength":151520
	},
	{
		"uri":"data:application/octet-stream;base64,",
		"byteLength":151816
	},
	{
		"uri":"data:application/octet-stream;base64,",
		"byteLength":164704
	},
	{
		"uri":"data:application/octet-stream;base64,",
		"byteLength":30304
	},
	{
		"uri":"data:application/octet-stream;base64,",
		"byteLength":83744
	}],
	"materials":[{
		"pbrMetallicRoughness":{
			"baseColorFactor":[0.0,
			0.0,
			0.0,
			1.0],
			"metallicFactor":0.0,
			"roughnessFactor":0.20000000298023225
		},
		"emissiveFactor":[0.0,
		0.0,
		0.0],
		"alphaMode":"OPAQUE",
		"doubleSided":false,
		"name":"TASAKI-YG"
	},
	{
		"pbrMetallicRoughness":{
			"baseColorFactor":[1.0,
			1.0,
			1.0,
			1.0],
			"metallicFactor":0.5,
			"roughnessFactor":0.3
		},
		"emissiveFactor":[0.0,
		0.0,
		0.0],
		"alphaMode":"OPAQUE",
		"doubleSided":false,
		"name":"TASAKI-PEARIL"
	}]
}